<svg width="609" height="164" viewBox="0 0 609 164" fill="none" xmlns="http://www.w3.org/2000/svg">
<path d="M31.025 83H18.19V33.02H1.7V22.31H47.515V33.02H31.025V83ZM84.6002 36.59H98.5402L80.1802 58.86L100.155 83H85.7902L66.8352 59.455V83H54.1702V36.59H66.8352V59.115L84.6002 36.59ZM128.387 35.655C134.621 35.655 139.381 37.015 142.667 39.735C146.011 42.3983 147.682 46.5067 147.682 52.06V83H138.842L136.377 76.71H136.037C134.734 78.3533 133.374 79.7133 131.957 80.79C130.597 81.8667 129.011 82.6317 127.197 83.085C125.441 83.595 123.259 83.85 120.652 83.85C117.932 83.85 115.467 83.34 113.257 82.32C111.104 81.2433 109.404 79.6283 108.157 77.475C106.911 75.265 106.287 72.4883 106.287 69.145C106.287 64.215 108.016 60.5883 111.472 58.265C114.929 55.885 120.114 54.5817 127.027 54.355L135.102 54.1V52.06C135.102 49.6233 134.451 47.8383 133.147 46.705C131.901 45.5717 130.144 45.005 127.877 45.005C125.611 45.005 123.401 45.345 121.247 46.025C119.094 46.6483 116.941 47.4417 114.787 48.405L110.622 39.82C113.116 38.5167 115.864 37.4967 118.867 36.76C121.927 36.0233 125.101 35.655 128.387 35.655ZM130.172 61.665C126.092 61.7783 123.259 62.515 121.672 63.875C120.086 65.235 119.292 67.02 119.292 69.23C119.292 71.1567 119.859 72.545 120.992 73.395C122.126 74.1883 123.599 74.585 125.412 74.585C128.132 74.585 130.427 73.7917 132.297 72.205C134.167 70.5617 135.102 68.2667 135.102 65.32V61.495L130.172 61.665ZM174.331 53.59C174.331 55.5733 174.813 57.075 175.776 58.095C176.796 59.115 178.184 59.625 179.941 59.625C182.378 59.625 184.644 59.37 186.741 58.86C188.838 58.2933 190.934 57.5567 193.031 56.65V36.59H205.696V83H193.031V64.555C191.048 65.6317 188.781 66.6233 186.231 67.53C183.681 68.38 180.791 68.805 177.561 68.805C172.744 68.805 168.891 67.5583 166.001 65.065C163.111 62.5717 161.666 58.8317 161.666 53.845V36.59H174.331V53.59ZM240.652 35.74C244.959 35.74 248.642 36.5617 251.702 38.205C254.819 39.8483 257.227 42.2283 258.927 45.345C260.627 48.4617 261.477 52.2867 261.477 56.82V62.94H231.557C231.671 66.51 232.719 69.315 234.702 71.355C236.742 73.395 239.547 74.415 243.117 74.415C246.121 74.415 248.841 74.1317 251.277 73.565C253.714 72.9417 256.236 72.0067 258.842 70.76V80.535C256.576 81.6683 254.167 82.49 251.617 83C249.124 83.5667 246.092 83.85 242.522 83.85C237.876 83.85 233.767 83 230.197 81.3C226.627 79.5433 223.822 76.9083 221.782 73.395C219.742 69.8817 218.722 65.4617 218.722 60.135C218.722 54.695 219.629 50.19 221.442 46.62C223.312 42.9933 225.891 40.2733 229.177 38.46C232.464 36.6467 236.289 35.74 240.652 35.74ZM240.737 44.75C238.301 44.75 236.261 45.5433 234.617 47.13C233.031 48.7167 232.096 51.1817 231.812 54.525H249.577C249.577 52.655 249.237 50.9833 248.557 49.51C247.934 48.0367 246.971 46.875 245.667 46.025C244.364 45.175 242.721 44.75 240.737 44.75ZM286.962 36.59V54.44H304.642V36.59H317.307V83H304.642V63.875H286.962V83H274.297V36.59H286.962ZM363.556 36.59H377.496L359.136 58.86L379.111 83H364.746L345.791 59.455V83H333.126V36.59H345.791V59.115L363.556 36.59ZM428.803 59.71C428.803 63.5633 428.265 66.9917 427.188 69.995C426.168 72.9983 424.666 75.5483 422.683 77.645C420.756 79.685 418.405 81.2433 415.628 82.32C412.851 83.34 409.706 83.85 406.193 83.85C402.963 83.85 399.96 83.34 397.183 82.32C394.463 81.2433 392.111 79.685 390.128 77.645C388.145 75.5483 386.586 72.9983 385.453 69.995C384.376 66.9917 383.838 63.5633 383.838 59.71C383.838 54.5533 384.745 50.2183 386.558 46.705C388.371 43.135 390.978 40.415 394.378 38.545C397.778 36.675 401.801 35.74 406.448 35.74C410.811 35.74 414.665 36.675 418.008 38.545C421.351 40.415 423.986 43.135 425.913 46.705C427.84 50.2183 428.803 54.5533 428.803 59.71ZM396.758 59.71C396.758 62.77 397.07 65.3483 397.693 67.445C398.373 69.485 399.421 71.0433 400.838 72.12C402.255 73.14 404.096 73.65 406.363 73.65C408.63 73.65 410.443 73.14 411.803 72.12C413.22 71.0433 414.24 69.485 414.863 67.445C415.543 65.3483 415.883 62.77 415.883 59.71C415.883 56.65 415.543 54.1 414.863 52.06C414.24 50.02 413.22 48.49 411.803 47.47C410.386 46.45 408.545 45.94 406.278 45.94C402.935 45.94 400.498 47.1017 398.968 49.425C397.495 51.6917 396.758 55.12 396.758 59.71ZM524.168 83H511.333V56.82H487.278V83H474.443V22.31H487.278V46.11H511.333V22.31H524.168V83ZM591.713 83H578.878V56.82H554.823V83H541.988V22.31H554.823V46.11H578.878V22.31H591.713V83Z" fill="white"/>
<path d="M165.094 148.195L163.852 151.547H163.711C162.211 150.906 160.766 149.883 159.375 148.477C157.984 147.07 156.742 145.328 155.648 143.25C154.555 141.172 153.688 138.82 153.047 136.195C152.406 133.555 152.086 130.703 152.086 127.641V127.125C152.086 124.062 152.406 121.219 153.047 118.594C153.688 115.953 154.555 113.594 155.648 111.516C156.742 109.438 157.984 107.695 159.375 106.289C160.766 104.883 162.211 103.859 163.711 103.219H163.852L165.094 106.641C164.078 107.406 163.125 108.406 162.234 109.641C161.359 110.875 160.594 112.344 159.938 114.047C159.281 115.75 158.766 117.688 158.391 119.859C158.031 122.031 157.852 124.438 157.852 127.078V127.688C157.852 130.328 158.031 132.734 158.391 134.906C158.766 137.062 159.281 139 159.938 140.719C160.594 142.438 161.359 143.914 162.234 145.148C163.125 146.383 164.078 147.398 165.094 148.195ZM182.014 114.264C185.534 114.264 188.222 115.032 190.078 116.568C191.966 118.072 192.91 120.392 192.91 123.528V141H187.918L186.526 137.448H186.334C185.598 138.376 184.83 139.144 184.03 139.752C183.262 140.36 182.366 140.792 181.342 141.048C180.35 141.336 179.118 141.48 177.646 141.48C176.11 141.48 174.718 141.192 173.47 140.616C172.254 140.008 171.294 139.096 170.59 137.88C169.886 136.632 169.534 135.064 169.534 133.176C169.534 130.392 170.51 128.344 172.462 127.032C174.414 125.688 177.342 124.952 181.246 124.824L185.806 124.68V123.528C185.806 122.152 185.438 121.144 184.702 120.504C183.998 119.864 183.006 119.544 181.726 119.544C180.446 119.544 179.198 119.736 177.982 120.12C176.766 120.472 175.55 120.92 174.334 121.464L171.982 116.616C173.39 115.88 174.942 115.304 176.638 114.888C178.366 114.472 180.158 114.264 182.014 114.264ZM183.022 128.952C180.718 129.016 179.118 129.432 178.222 130.2C177.326 130.968 176.878 131.976 176.878 133.224C176.878 134.312 177.198 135.096 177.838 135.576C178.478 136.024 179.31 136.248 180.334 136.248C181.87 136.248 183.166 135.8 184.222 134.904C185.278 133.976 185.806 132.68 185.806 131.016V128.856L183.022 128.952ZM225.143 141H217.991V120.168H211.415C211.095 124.008 210.695 127.288 210.215 130.008C209.767 132.696 209.191 134.888 208.487 136.584C207.815 138.28 206.951 139.528 205.895 140.328C204.839 141.096 203.543 141.48 202.007 141.48C201.175 141.48 200.423 141.416 199.751 141.288C199.079 141.16 198.471 140.968 197.927 140.712V135C198.279 135.128 198.647 135.24 199.031 135.336C199.415 135.432 199.815 135.48 200.231 135.48C200.679 135.48 201.095 135.304 201.479 134.952C201.895 134.6 202.279 133.976 202.631 133.08C203.015 132.184 203.367 130.952 203.687 129.384C204.007 127.816 204.295 125.848 204.551 123.48C204.839 121.08 205.095 118.184 205.319 114.792H225.143V141ZM267.072 114.792V141H260.4V128.136C260.4 126.856 260.416 125.608 260.448 124.392C260.512 123.176 260.592 122.056 260.688 121.032H260.544L253.296 141H247.92L240.576 120.984H240.384C240.512 122.04 240.592 123.176 240.624 124.392C240.688 125.576 240.72 126.888 240.72 128.328V141H234.048V114.792H244.176L250.704 132.552L257.328 114.792H267.072ZM286.74 114.264C290.26 114.264 292.948 115.032 294.804 116.568C296.692 118.072 297.636 120.392 297.636 123.528V141H292.644L291.252 137.448H291.06C290.324 138.376 289.556 139.144 288.756 139.752C287.988 140.36 287.092 140.792 286.068 141.048C285.076 141.336 283.844 141.48 282.372 141.48C280.836 141.48 279.444 141.192 278.196 140.616C276.98 140.008 276.02 139.096 275.316 137.88C274.612 136.632 274.26 135.064 274.26 133.176C274.26 130.392 275.236 128.344 277.188 127.032C279.14 125.688 282.068 124.952 285.972 124.824L290.532 124.68V123.528C290.532 122.152 290.164 121.144 289.428 120.504C288.724 119.864 287.732 119.544 286.452 119.544C285.172 119.544 283.924 119.736 282.708 120.12C281.492 120.472 280.276 120.92 279.06 121.464L276.708 116.616C278.116 115.88 279.668 115.304 281.364 114.888C283.092 114.472 284.884 114.264 286.74 114.264ZM287.748 128.952C285.444 129.016 283.844 129.432 282.948 130.2C282.052 130.968 281.604 131.976 281.604 133.224C281.604 134.312 281.924 135.096 282.564 135.576C283.204 136.024 284.036 136.248 285.06 136.248C286.596 136.248 287.892 135.8 288.948 134.904C290.004 133.976 290.532 132.68 290.532 131.016V128.856L287.748 128.952ZM318.942 123.773V129.047H305.723V123.773H318.942ZM350.194 121.656C350.194 123.064 349.746 124.264 348.85 125.256C347.986 126.248 346.69 126.888 344.962 127.176V127.368C346.786 127.592 348.242 128.216 349.33 129.24C350.45 130.264 351.01 131.576 351.01 133.176C351.01 134.296 350.786 135.336 350.338 136.296C349.922 137.256 349.25 138.088 348.322 138.792C347.394 139.496 346.194 140.04 344.722 140.424C343.282 140.808 341.522 141 339.442 141H326.962V114.792H339.442C341.49 114.792 343.314 115.016 344.914 115.464C346.546 115.88 347.826 116.584 348.754 117.576C349.714 118.568 350.194 119.928 350.194 121.656ZM343.618 132.792C343.618 131.768 343.218 131.032 342.418 130.584C341.618 130.104 340.418 129.864 338.818 129.864H334.114V136.056H338.962C340.306 136.056 341.41 135.816 342.274 135.336C343.17 134.824 343.618 133.976 343.618 132.792ZM342.946 122.232C342.946 121.4 342.626 120.792 341.986 120.408C341.346 120.024 340.402 119.832 339.154 119.832H334.114V125.016H338.338C339.842 125.016 340.978 124.808 341.746 124.392C342.546 123.944 342.946 123.224 342.946 122.232ZM365.502 125.16C365.502 125.704 365.47 126.376 365.406 127.176C365.374 127.976 365.326 128.792 365.262 129.624C365.23 130.456 365.182 131.192 365.118 131.832C365.054 132.472 365.006 132.92 364.974 133.176L377.07 114.792H385.662V141H378.75V130.536C378.75 129.672 378.782 128.728 378.846 127.704C378.91 126.648 378.974 125.672 379.038 124.776C379.134 123.848 379.198 123.144 379.23 122.664L367.182 141H358.59V114.792H365.502V125.16ZM418.145 114.792V135.768H421.985V150.408H415.553V141H397.937V150.408H391.505V135.768H393.713C394.865 134.008 395.841 132.008 396.641 129.768C397.441 127.496 398.081 125.08 398.561 122.52C399.041 119.96 399.393 117.384 399.617 114.792H418.145ZM405.617 120.168C405.361 122.088 405.041 123.96 404.657 125.784C404.273 127.576 403.793 129.304 403.217 130.968C402.673 132.632 402.001 134.232 401.201 135.768H410.993V120.168H405.617ZM426.983 151.547H426.843L425.577 148.195C427.671 146.633 429.382 144.156 430.71 140.766C431.366 139.062 431.882 137.117 432.257 134.93C432.632 132.742 432.819 130.328 432.819 127.688V127.078C432.819 124.453 432.624 122.047 432.233 119.859C431.858 117.672 431.343 115.727 430.687 114.023C430.015 112.305 429.241 110.82 428.366 109.57C427.507 108.32 426.577 107.312 425.577 106.547L426.843 103.219H426.983C428.499 103.844 429.968 104.875 431.39 106.312C432.812 107.75 434.093 109.523 435.233 111.633C436.374 113.742 437.272 116.109 437.929 118.734C438.601 121.344 438.937 124.141 438.937 127.125V127.641C438.937 130.641 438.601 133.453 437.929 136.078C437.272 138.688 436.374 141.047 435.233 143.156C434.093 145.25 432.812 147.016 431.39 148.453C429.968 149.891 428.499 150.922 426.983 151.547Z" fill="white"/>
</svg>
