<svg width="95" height="93" viewBox="0 0 95 93" fill="none" xmlns="http://www.w3.org/2000/svg">
<path d="M54.0038 89.3154H87C89.7614 89.3154 92 87.0768 92 84.3154V22.2956C92 20.369 90.893 18.6138 89.1544 17.7836L61.1582 4.41607C57.8398 2.83159 54.0038 5.25082 54.0038 8.92811V19.1423M54.0038 89.3154V19.1423M54.0038 89.3154H25.25M54.0038 19.1423H30.25C27.4886 19.1423 25.25 21.3809 25.25 24.1423V54.2288M25.25 89.3154H8C5.23858 89.3154 3 87.0768 3 84.3154V66.6611C3 64.6286 4.23032 62.7984 6.11238 62.0311L25.25 54.2288M25.25 89.3154V54.2288" stroke="white" stroke-width="6"/>
<rect x="66.4316" y="42.5231" width="14.1692" height="44.9769" rx="2.5" stroke="white" stroke-width="5"/>
<rect x="36.9922" y="41.8385" width="8.00769" height="44.9769" rx="2.5" stroke="white" stroke-width="5"/>
</svg>
