<svg width="107" height="66" viewBox="0 0 107 66" fill="none" xmlns="http://www.w3.org/2000/svg">
<path d="M8.35636 40.8585V61.7457C8.35636 62.8503 9.25179 63.7457 10.3564 63.7457H43.4844C44.589 63.7457 45.4844 62.8503 45.4844 61.7457V40.8585M8.35636 40.8585L25.5062 23.7087C26.2872 22.9276 27.5536 22.9276 28.3346 23.7087L45.4844 40.8585M8.35636 40.8585H7.59015C5.80834 40.8585 4.916 38.7042 6.17593 37.4443L25.5062 18.114C26.2872 17.333 27.5536 17.333 28.3346 18.114L47.6649 37.4443C48.9248 38.7042 48.0325 40.8585 46.2507 40.8585H45.4844" stroke="white" stroke-width="3"/>
<rect x="17.9941" y="46.6816" width="5.64627" height="15.8183" stroke="white" stroke-width="3"/>
<rect x="30.709" y="41.5956" width="5.64627" height="15.8183" stroke="white" stroke-width="3"/>
<path d="M9.88281 33.2295V25.0574C9.88281 23.9528 10.7782 23.0574 11.8828 23.0574H20.5635" stroke="white" stroke-width="3"/>
<path d="M99.3975 40.8585V61.7457C99.3975 62.8503 98.5021 63.7457 97.3975 63.7457H64.2695C63.1649 63.7457 62.2695 62.8503 62.2695 61.7457V40.8585M99.3975 40.8585L82.2477 23.7087C81.4667 22.9276 80.2003 22.9276 79.4193 23.7087L62.2695 40.8585M99.3975 40.8585H100.164C101.946 40.8585 102.838 38.7042 101.578 37.4443L82.2477 18.114C81.4667 17.333 80.2003 17.333 79.4193 18.114L60.089 37.4443C58.8291 38.7042 59.7214 40.8585 61.5033 40.8585H62.2695" stroke="white" stroke-width="3"/>
<rect x="-1.5" y="1.5" width="5.64627" height="15.8183" transform="matrix(-1 0 0 1 88.2598 45.1816)" stroke="white" stroke-width="3"/>
<rect x="-1.5" y="1.5" width="5.64627" height="15.8183" transform="matrix(-1 0 0 1 75.5449 40.0956)" stroke="white" stroke-width="3"/>
<path d="M97.8711 33.2295V25.0574C97.8711 23.9528 96.9757 23.0574 95.8711 23.0574H87.1904" stroke="white" stroke-width="3"/>
<path d="M2 63.7457H105.247" stroke="white" stroke-width="3" stroke-linecap="round"/>
<path d="M39.8914 29.6692C37.4815 27.4717 35.2997 21.9467 39.3823 17.9911C39.9348 17.4558 40.4795 17.0675 41.0119 16.8002C42.9136 15.8453 47.4634 13.1814 47.3371 11.0572C47.1971 8.70262 47.2287 6.6942 47.5207 6.01915C49.5867 1.24228 56.1669 0.933063 58.7099 3.98478C61.7312 7.61035 55.9945 19.9547 58.7099 17.9911C65.0675 13.3941 69.8985 15.9369 69.3899 21.2773C69.1444 23.8556 66.7806 29.6852 66.0718 30.941" stroke="white" stroke-width="3" stroke-linecap="round"/>
<path d="M53.1152 21.7859V30.8668M53.1152 30.8668V37.9843V63.2371M53.1152 30.8668L59.7271 24.4856" stroke="white" stroke-width="3" stroke-linecap="round"/>
</svg>
