<svg width="80" height="102" viewBox="0 0 80 102" fill="none" xmlns="http://www.w3.org/2000/svg">
<rect x="2" y="2" width="48.2581" height="97.9847" rx="3" stroke="white" stroke-width="4"/>
<rect x="-2" y="2" width="25.6774" height="64.7131" rx="3" transform="matrix(-1 0 0 1 76 33.2716)" stroke="white" stroke-width="4"/>
<rect x="-2" y="2" width="10.1935" height="13.3591" rx="3" transform="matrix(-1 0 0 1 29.5488 84.6257)" stroke="white" stroke-width="4"/>
<line x1="40.0645" y1="10.8495" x2="40.0645" y2="25.3154" stroke="white" stroke-width="4"/>
<line x1="16.1934" y1="10.8495" x2="16.1934" y2="25.3154" stroke="white" stroke-width="4"/>
<line x1="28.4512" y1="10.8495" x2="28.4512" y2="25.3154" stroke="white" stroke-width="4"/>
<line x1="40.0645" y1="62.9267" x2="40.0645" y2="77.3926" stroke="white" stroke-width="4"/>
<line x1="16.1934" y1="62.9267" x2="16.1934" y2="77.3926" stroke="white" stroke-width="4"/>
<line x1="28.4512" y1="62.9267" x2="28.4512" y2="77.3926" stroke="white" stroke-width="4"/>
<line x1="40.0645" y1="36.8882" x2="40.0645" y2="51.3542" stroke="white" stroke-width="4"/>
<line x1="16.1934" y1="36.8882" x2="16.1934" y2="51.3542" stroke="white" stroke-width="4"/>
<line x1="28.4512" y1="36.8882" x2="28.4512" y2="51.3542" stroke="white" stroke-width="4"/>
<line x1="71.6777" y1="44.1212" x2="71.6777" y2="58.5871" stroke="white" stroke-width="4"/>
<line x1="60.0645" y1="44.1212" x2="60.0645" y2="58.5871" stroke="white" stroke-width="4"/>
<line x1="71.6777" y1="70.1595" x2="71.6777" y2="84.6255" stroke="white" stroke-width="4"/>
<line x1="60.0645" y1="70.1595" x2="60.0645" y2="84.6255" stroke="white" stroke-width="4"/>
</svg>
