<svg width="199" height="199" viewBox="0 0 199 199" fill="none" xmlns="http://www.w3.org/2000/svg">
<circle cx="99.5" cy="99.5" r="99.5" fill="url(#paint0_linear_149_710)"/>
<path d="M152.219 74.4039C152.223 73.7102 152.09 73.0224 151.827 72.3802C151.565 71.7379 151.178 71.1537 150.69 70.6612L128.337 48.3101C127.844 47.8215 127.26 47.435 126.618 47.1726C125.976 46.9103 125.288 46.7773 124.594 46.7813C123.9 46.7773 123.212 46.9103 122.57 47.1726C121.928 47.435 121.344 47.8215 120.851 48.3101L105.932 63.2284L48.3101 120.846C47.8215 121.338 47.4349 121.922 47.1725 122.565C46.9102 123.207 46.7772 123.895 46.7812 124.588V146.94C46.7812 148.338 47.3366 149.679 48.3253 150.667C49.314 151.656 50.6549 152.211 52.0531 152.211H74.4058C75.1435 152.251 75.8814 152.136 76.5716 151.872C77.2618 151.609 77.889 151.204 78.4124 150.682L135.718 93.065L150.69 78.4103C151.171 77.8994 151.563 77.3113 151.85 76.6707C151.9 76.2505 151.9 75.8257 151.85 75.4055C151.874 75.1601 151.874 74.9129 151.85 74.6675L152.219 74.4039ZM72.2444 141.668H57.325V126.75L109.675 74.4039L124.594 89.3222L72.2444 141.668ZM132.027 81.8894L117.108 66.9711L124.594 59.5383L139.461 74.4039L132.027 81.8894Z" fill="white"/>
<defs>
<linearGradient id="paint0_linear_149_710" x1="99.5" y1="0" x2="99.5" y2="199" gradientUnits="userSpaceOnUse">
<stop stop-color="#17628C"/>
<stop offset="0.0001" stop-color="#17628C" stop-opacity="0.838542"/>
<stop offset="1" stop-color="#17628C" stop-opacity="0"/>
</linearGradient>
</defs>
</svg>
