<svg width="49" height="41" viewBox="0 0 49 41" fill="none" xmlns="http://www.w3.org/2000/svg">
<path d="M14.1875 24.1667L29.4528 14.843C30.4693 14.2222 31.5248 15.5797 30.6727 16.4119L19.8125 27.0167L18.9172 36.089C18.8905 36.3599 18.9856 36.6288 19.1769 36.8225C19.5292 37.1796 20.1031 37.1869 20.4644 36.8391L25.7824 31.7196C25.9446 31.5635 26.1953 31.5456 26.378 31.6772L36.5564 39.0056C37.3682 39.5901 38.4735 39.5474 39.2378 38.902C39.6102 38.5875 39.8665 38.1574 39.9658 37.6803L46.7983 4.86882C46.9274 4.24862 46.8043 3.60251 46.4561 3.07327C46.0154 2.40333 45.2672 2 44.4653 2H44.3628C44.0405 2 43.721 2.06055 43.4211 2.1785L2.58128 18.2381C2.23059 18.376 2 18.7144 2 19.0913C2 19.4767 2.24113 19.821 2.60338 19.9528L14.1875 24.1667Z" stroke="white" stroke-width="3"/>
</svg>
