<svg width="90" height="89" viewBox="0 0 90 89" fill="none" xmlns="http://www.w3.org/2000/svg">
<rect x="3" y="3" width="84" height="83" stroke="black" stroke-width="6"/>
<path d="M18 15C16.3431 15 15 16.3431 15 18L15 45C15 46.6569 16.3431 48 18 48C19.6569 48 21 46.6569 21 45L21 21L45 21C46.6569 21 48 19.6569 48 18C48 16.3431 46.6569 15 45 15L18 15ZM71 74C72.6569 74 74 72.6569 74 71L74 44C74 42.3431 72.6569 41 71 41C69.3431 41 68 42.3431 68 44L68 68L44 68C42.3431 68 41 69.3431 41 71C41 72.6569 42.3431 74 44 74L71 74ZM15.8787 20.1213L68.8787 73.1213L73.1213 68.8787L20.1213 15.8787L15.8787 20.1213Z" fill="black"/>
</svg>
