<svg width="131" height="95" viewBox="0 0 131 95" fill="none" xmlns="http://www.w3.org/2000/svg">
<rect x="3" y="3" width="79.5726" height="89" stroke="black" stroke-width="6"/>
<rect x="-3" y="3" width="42.5968" height="58.0071" transform="matrix(-1 0 0 1 125 30.9927)" stroke="black" stroke-width="6"/>
<rect x="-3" y="3" width="17.2419" height="10.1702" transform="matrix(-1 0 0 1 48.9355 78.8296)" stroke="black" stroke-width="6"/>
<line x1="65.3306" y1="10.1064" x2="65.3306" y2="23.5816" stroke="black" stroke-width="6"/>
<line x1="26.2417" y1="10.1064" x2="26.2417" y2="23.5816" stroke="black" stroke-width="6"/>
<line x1="46.3145" y1="10.1064" x2="46.3145" y2="23.5816" stroke="black" stroke-width="6"/>
<line x1="65.3306" y1="58.6172" x2="65.3306" y2="72.0924" stroke="black" stroke-width="6"/>
<line x1="26.2417" y1="58.6172" x2="26.2417" y2="72.0924" stroke="black" stroke-width="6"/>
<line x1="46.3145" y1="58.6172" x2="46.3145" y2="72.0924" stroke="black" stroke-width="6"/>
<line x1="65.3306" y1="34.3618" x2="65.3306" y2="47.837" stroke="black" stroke-width="6"/>
<line x1="26.2417" y1="34.3618" x2="26.2417" y2="47.837" stroke="black" stroke-width="6"/>
<line x1="46.3145" y1="34.3618" x2="46.3145" y2="47.837" stroke="black" stroke-width="6"/>
<line x1="117.097" y1="41.0991" x2="117.097" y2="54.5743" stroke="black" stroke-width="6"/>
<line x1="98.0806" y1="41.0991" x2="98.0806" y2="54.5743" stroke="black" stroke-width="6"/>
<line x1="117.097" y1="65.3545" x2="117.097" y2="78.8297" stroke="black" stroke-width="6"/>
<line x1="98.0806" y1="65.3545" x2="98.0806" y2="78.8297" stroke="black" stroke-width="6"/>
</svg>
